<svg width="18" height="18" viewBox="0 0 18 18" fill="none" xmlns="http://www.w3.org/2000/svg">
<path d="M6.14107 0.726746H3.69118C2.85579 0.726746 2.05461 1.0586 1.46389 1.64932C0.87318 2.24003 0.541321 3.04121 0.541321 3.8766L0.541321 6.32649C0.541321 6.69778 0.688814 7.05386 0.951353 7.3164C1.21389 7.57894 1.56997 7.72643 1.94126 7.72643H6.14107C6.51236 7.72643 6.86844 7.57894 7.13097 7.3164C7.39351 7.05386 7.54101 6.69778 7.54101 6.32649V2.12668C7.54101 1.7554 7.39351 1.39932 7.13097 1.13678C6.86844 0.874239 6.51236 0.726746 6.14107 0.726746ZM10.3409 7.72643H14.5407C14.912 7.72643 15.2681 7.57894 15.5306 7.3164C15.7931 7.05386 15.9406 6.69778 15.9406 6.32649V3.8766C15.9406 3.04121 15.6088 2.24003 15.0181 1.64932C14.4273 1.0586 13.6262 0.726746 12.7908 0.726746L10.3409 0.726746C9.96959 0.726746 9.61352 0.874239 9.35098 1.13678C9.08844 1.39932 8.94094 1.7554 8.94094 2.12668V6.32649C8.94094 6.69778 9.08844 7.05386 9.35098 7.3164C9.61352 7.57894 9.96959 7.72643 10.3409 7.72643ZM6.14107 9.12637H1.94126C1.56997 9.12637 1.21389 9.27386 0.951353 9.5364C0.688814 9.79894 0.541321 10.155 0.541321 10.5263L0.541321 12.9762C0.541321 13.8116 0.87318 14.6128 1.46389 15.2035C2.05461 15.7942 2.85579 16.1261 3.69118 16.1261H6.14107C6.51236 16.1261 6.86844 15.9786 7.13097 15.716C7.39351 15.4535 7.54101 15.0974 7.54101 14.7261V10.5263C7.54101 10.155 7.39351 9.79894 7.13097 9.5364C6.86844 9.27386 6.51236 9.12637 6.14107 9.12637ZM17.1355 16.3311L15.3576 14.5532C15.7376 13.9824 15.9405 13.312 15.9406 12.6262C15.9406 10.6964 14.3706 9.12637 12.4408 9.12637C10.511 9.12637 8.94094 10.6964 8.94094 12.6262C8.94094 14.556 10.511 16.1261 12.4408 16.1261C13.1266 16.1259 13.797 15.9231 14.3678 15.543L16.1457 17.3209C16.2106 17.3861 16.2877 17.4379 16.3726 17.4732C16.4575 17.5085 16.5486 17.5267 16.6406 17.5267C16.7326 17.5267 16.8237 17.5085 16.9086 17.4732C16.9935 17.4379 17.0706 17.3861 17.1355 17.3209C17.2005 17.256 17.2521 17.1788 17.2874 17.0939C17.3226 17.009 17.3407 16.918 17.3407 16.826C17.3407 16.7341 17.3226 16.6431 17.2874 16.5582C17.2521 16.4732 17.2005 16.3961 17.1355 16.3311Z" fill="#408F8C"/>
</svg>
