<svg width="101" height="101" viewBox="0 0 101 101" fill="none" xmlns="http://www.w3.org/2000/svg">
<path opacity="0.5" d="M30.9327 29.5807C30.9327 18.6682 39.8119 9.78906 50.7244 9.78906C61.6369 9.78906 70.516 18.6682 70.516 29.5807C70.516 40.4932 61.6369 49.3724 50.7244 49.3724C39.8119 49.3724 30.9327 40.4932 30.9327 29.5807ZM63.2244 55.6224H38.2244C25.0161 55.6224 14.2661 66.3724 14.2661 79.5807C14.2683 82.619 15.4762 85.5322 17.6246 87.6805C19.7729 89.8289 22.6861 91.0368 25.7244 91.0391H75.7244C78.7626 91.0368 81.6758 89.8289 83.8242 87.6805C85.9726 85.5322 87.1805 82.619 87.1827 79.5807C87.1827 66.3724 76.4327 55.6224 63.2244 55.6224Z" fill="#7D7D7D"/>
</svg>
