<svg width="15" height="17" viewBox="0 0 15 17" fill="none" xmlns="http://www.w3.org/2000/svg">
<path d="M4.57396 14.1007C4.8324 14.695 5.25878 15.2009 5.80073 15.5561C6.34268 15.9114 6.9766 16.1007 7.62463 16.1007C8.27266 16.1007 8.90658 15.9114 9.44853 15.5561C9.99048 15.2009 10.4169 14.695 10.6753 14.1007H4.57396ZM14.5526 8.46675L13.3953 4.65141C13.0247 3.31698 12.2189 2.14459 11.1059 1.32041C9.99286 0.496231 8.63641 0.0674902 7.2519 0.102264C5.86739 0.137037 4.53418 0.633332 3.46394 1.51235C2.3937 2.39137 1.64779 3.60272 1.34463 4.95408L0.445961 8.64541C0.326517 9.13591 0.320045 9.64714 0.427035 10.1405C0.534024 10.6339 0.75168 11.0965 1.06358 11.4935C1.37547 11.8904 1.77346 12.2114 2.22751 12.4321C2.68155 12.6527 3.17979 12.7674 3.68463 12.7674H11.3626C11.8831 12.7674 12.3964 12.6456 12.8613 12.4116C13.3262 12.1776 13.7299 11.838 14.04 11.4199C14.3501 11.0019 14.5579 10.517 14.647 10.0042C14.736 9.49138 14.7037 8.96484 14.5526 8.46675Z" fill="white"/>
</svg>
