<svg width="77" height="77" viewBox="0 0 77 77" fill="none" xmlns="http://www.w3.org/2000/svg">
<circle cx="38.4641" cy="38.2687" r="37.4351" fill="#F1F1F1" stroke="#C3C3C3" stroke-width="0.729781"/>
<g clip-path="url(#clip0_261_8420)">
<path d="M44.5448 37.5087C44.5447 37.8083 44.4856 38.1049 44.3708 38.3817C44.2561 38.6584 44.088 38.9098 43.8761 39.1216C43.6641 39.3334 43.4126 39.5013 43.1358 39.6159C42.859 39.7304 42.5623 39.7894 42.2627 39.7893C41.9631 39.7892 41.6665 39.7301 41.3897 39.6153C41.113 39.5006 40.8615 39.3324 40.6498 39.1205C40.438 38.9086 40.27 38.6571 40.1555 38.3803C40.0409 38.1034 39.982 37.8068 39.9821 37.5072C39.9823 36.9021 40.2229 36.3219 40.6508 35.8943C41.0788 35.4666 41.6592 35.2264 42.2642 35.2266C42.8693 35.2268 43.4494 35.4674 43.8771 35.8953C44.3048 36.3233 44.545 36.9037 44.5448 37.5087ZM49.1059 37.5087C49.106 37.8083 49.1651 38.1049 49.2799 38.3817C49.3946 38.6584 49.5627 38.9098 49.7746 39.1216C49.9865 39.3334 50.2381 39.5013 50.5149 39.6159C50.7917 39.7304 51.0884 39.7894 51.388 39.7893C51.6876 39.7892 51.9842 39.7301 52.261 39.6153C52.5377 39.5006 52.7891 39.3324 53.0009 39.1205C53.2127 38.9086 53.3806 38.6571 53.4952 38.3803C53.6097 38.1034 53.6687 37.8068 53.6686 37.5072C53.6684 36.9021 53.4278 36.3219 52.9998 35.8943C52.5719 35.4666 51.9915 35.2264 51.3865 35.2266C50.7814 35.2268 50.2012 35.4674 49.7736 35.8953C49.3459 36.3233 49.1057 36.9037 49.1059 37.5087ZM36.9429 23.0651H37.4233C38.1653 23.0651 38.7962 23.5957 38.9224 24.327L39.8909 29.9235C40.0714 30.9841 40.6219 31.9464 41.4447 32.6394C42.2675 33.3325 43.3093 33.7116 44.3851 33.7093H51.1189C53.1243 33.7093 54.8742 32.4246 55.4702 30.5134L56.5679 27.0181C56.7129 26.5629 56.7478 26.0798 56.6695 25.6085C56.5913 25.1372 56.4022 24.6912 56.1179 24.3073C55.8371 23.9209 55.4684 23.6068 55.0422 23.3911C54.6161 23.1754 54.1447 23.0642 53.667 23.0666H41.726C41.4126 22.1762 40.8302 21.4053 40.0593 20.8605C39.2884 20.3157 38.3673 20.0241 37.4233 20.0259H36.9429C36.5397 20.0259 36.153 20.1861 35.8678 20.4712C35.5827 20.7563 35.4225 21.143 35.4225 21.5463C35.4225 21.9495 35.5827 22.3362 35.8678 22.6213C36.153 22.9065 36.5397 23.0651 36.9429 23.0651ZM51.3865 42.83C49.4404 42.83 47.7528 41.7688 46.8253 40.2058C46.3591 41.0023 45.6932 41.6633 44.8932 42.1236C44.0933 42.5838 43.1871 42.8273 42.2642 42.83C39.3299 42.83 36.9429 40.443 36.9429 37.5087C36.9429 36.0871 37.5115 34.8009 38.4237 33.8446C37.6367 32.8548 37.1108 31.6833 36.8942 30.4374L36.1325 26.0344C35.3424 25.8888 34.6045 25.5377 33.9931 25.0165C33.3816 24.4953 32.9182 23.8223 32.6493 23.0651H27.8222C25.8065 23.0671 23.8739 23.8686 22.4485 25.2938C21.0231 26.7189 20.2212 28.6513 20.2188 30.667V42.83C20.2188 47.0217 23.629 50.4319 27.8206 50.4319H36.9429V53.4726H30.8614C30.4582 53.4726 30.0714 53.6328 29.7863 53.918C29.5012 54.2031 29.341 54.5898 29.341 54.993C29.341 55.3963 29.5012 55.783 29.7863 56.0681C30.0714 56.3532 30.4582 56.5134 30.8614 56.5134H46.0652C46.4684 56.5134 46.8551 56.3532 47.1402 56.0681C47.4253 55.783 47.5855 55.3963 47.5855 54.993C47.5855 54.5898 47.4253 54.2031 47.1402 53.918C46.8551 53.6328 46.4684 53.4726 46.0652 53.4726H39.9836V50.4319H49.1059C53.2976 50.4319 56.7078 47.0217 56.7078 42.83V37.5087C56.7078 40.443 54.3208 42.83 51.3865 42.83Z" fill="#A5A5A5"/>
</g>
<defs>
<clipPath id="clip0_261_8420">
<rect width="36.489" height="36.489" fill="white" transform="translate(20.2188 20.0242)"/>
</clipPath>
</defs>
</svg>
