<svg width="57" height="57" viewBox="0 0 57 57" fill="none" xmlns="http://www.w3.org/2000/svg">
<rect x="4.9707" y="4.76172" width="48" height="48" rx="24" fill="#7DB94B" fill-opacity="0.3"/>
<rect x="4.9707" y="4.76172" width="48" height="48" rx="24" stroke="#7DB94B" stroke-opacity="0.1" stroke-width="8"/>
<g clip-path="url(#clip0_450_14393)">
<path d="M28.9707 16.7158C22.3537 16.7158 16.9707 22.0988 16.9707 28.7158C16.9707 35.3328 22.3537 40.7158 28.9707 40.7158C35.5877 40.7158 40.9707 35.3328 40.9707 28.7158C40.9707 22.0988 35.5877 16.7158 28.9707 16.7158ZM28.8797 32.1348C28.5041 32.5073 27.9962 32.7159 27.4672 32.715C26.9381 32.7141 26.431 32.5037 26.0567 32.1298L23.2747 29.4338L24.6677 27.9968L27.4607 30.7038L33.2697 25.0028L34.6737 26.4278L28.8797 32.1348Z" fill="#7DB94B"/>
</g>
<defs>
<clipPath id="clip0_450_14393">
<rect width="24" height="24" fill="white" transform="translate(16.9707 16.7158)"/>
</clipPath>
</defs>
</svg>
