<svg width="24" height="24" viewBox="0 0 24 24" fill="none" xmlns="http://www.w3.org/2000/svg">
<path d="M18.2614 4.44209H17.2164C16.9959 3.36993 16.4126 2.40657 15.5646 1.71437C14.7167 1.02218 13.656 0.643472 12.5614 0.64209L10.6614 0.64209C9.56683 0.643472 8.50618 1.02218 7.65824 1.71437C6.8103 2.40657 6.22692 3.36993 6.00643 4.44209H4.96143C3.70211 4.4436 2.49481 4.94453 1.60433 5.835C0.713864 6.72547 0.212934 7.93277 0.211426 9.19209L0.211426 12.0421H23.0114V9.19209C23.0099 7.93277 22.509 6.72547 21.6185 5.835C20.728 4.94453 19.5207 4.4436 18.2614 4.44209ZM7.98623 4.44209C8.182 3.88833 8.5441 3.40858 9.02296 3.06847C9.50183 2.72837 10.0741 2.54452 10.6614 2.54209H12.5614C13.1488 2.54452 13.721 2.72837 14.1999 3.06847C14.6788 3.40858 15.0408 3.88833 15.2366 4.44209H7.98623ZM12.5614 14.8921C12.5614 15.144 12.4613 15.3857 12.2832 15.5638C12.105 15.742 11.8634 15.8421 11.6114 15.8421C11.3595 15.8421 11.1178 15.742 10.9397 15.5638C10.7615 15.3857 10.6614 15.144 10.6614 14.8921V13.9421H0.211426V18.6921C0.212934 19.9514 0.713864 21.1587 1.60433 22.0492C2.49481 22.9397 3.70211 23.4406 4.96143 23.4421H18.2614C19.5207 23.4406 20.728 22.9397 21.6185 22.0492C22.509 21.1587 23.0099 19.9514 23.0114 18.6921V13.9421H12.5614V14.8921Z" fill="#408F8C"/>
</svg>
