<svg width="15" height="15" viewBox="0 0 15 15" fill="none" xmlns="http://www.w3.org/2000/svg">
<g clip-path="url(#clip0_261_8634)">
<path fill-rule="evenodd" clip-rule="evenodd" d="M7.5 14.4348H4C3.07174 14.4348 2.1815 14.0661 1.52513 13.4097C0.868749 12.7533 0.5 11.8631 0.5 10.9348V3.93481C0.5 3.00656 0.868749 2.11632 1.52513 1.45994C2.1815 0.803563 3.07174 0.434814 4 0.434814L11 0.434814C11.9283 0.434814 12.8185 0.803563 13.4749 1.45994C14.1313 2.11632 14.5 3.00656 14.5 3.93481V10.9348C14.5 11.8631 14.1313 12.7533 13.4749 13.4097C12.8185 14.0661 11.9283 14.4348 11 14.4348H9.6875C9.6875 14.1447 9.57227 13.8665 9.36715 13.6614C9.16203 13.4563 8.88383 13.3411 8.59375 13.3411C8.30367 13.3411 8.02547 13.4563 7.82035 13.6614C7.61523 13.8665 7.5 14.1447 7.5 14.4348Z" fill="#3764B9"/>
<path fill-rule="evenodd" clip-rule="evenodd" d="M7.0625 4.37231H11C11.5051 4.37295 11.9912 4.1794 12.3576 3.83171C12.724 3.48402 12.9428 3.00878 12.9686 2.50432C12.9945 1.99985 12.8254 1.50474 12.4965 1.12142C12.1675 0.738094 11.7038 0.495879 11.2012 0.444877C11.1343 0.441158 11.068 0.434814 11 0.434814H4C3.07174 0.434814 2.1815 0.803563 1.52513 1.45994C0.868749 2.11632 0.5 3.00656 0.5 3.93481L0.5 10.9348C0.5 9.19433 1.1914 7.52513 2.42211 6.29443C3.65282 5.06372 5.32202 4.37231 7.0625 4.37231Z" fill="#507DD2"/>
<path fill-rule="evenodd" clip-rule="evenodd" d="M11 7.43481C10.3078 7.43481 9.63108 7.64009 9.05551 8.02467C8.47993 8.40926 8.03133 8.95588 7.76642 9.59542C7.50152 10.235 7.4322 10.9387 7.56725 11.6176C7.7023 12.2966 8.03564 12.9202 8.52513 13.4097C9.01461 13.8992 9.63825 14.2325 10.3172 14.3676C10.9961 14.5026 11.6999 14.4333 12.3394 14.1684C12.9789 13.9035 13.5256 13.4549 13.9101 12.8793C14.2947 12.3037 14.5 11.627 14.5 10.9348V3.93481C14.5 4.86307 14.1313 5.75331 13.4749 6.40969C12.8185 7.06607 11.9283 7.43481 11 7.43481Z" fill="#1E4BA0"/>
<path fill-rule="evenodd" clip-rule="evenodd" d="M11.875 4.37231C11.875 4.48835 11.8289 4.59963 11.7469 4.68167C11.6648 4.76372 11.5535 4.80981 11.4375 4.80981H10.125C10.009 4.80981 9.89769 4.85591 9.81564 4.93796C9.73359 5.02 9.6875 5.13128 9.6875 5.24731V6.99731H11.3413C11.406 6.99732 11.4699 7.01169 11.5284 7.03938C11.5869 7.06707 11.6385 7.10739 11.6795 7.15744C11.7206 7.20749 11.75 7.26602 11.7657 7.32882C11.7814 7.39161 11.7829 7.4571 11.7702 7.52056L11.5077 8.83306C11.4879 8.93224 11.4343 9.02149 11.3561 9.08562C11.2779 9.14975 11.1799 9.1848 11.0788 9.18481H9.6875V14.4348H7.5V9.18481H6.1875C6.07147 9.18481 5.96019 9.13872 5.87814 9.05667C5.79609 8.97463 5.75 8.86335 5.75 8.74731V7.43481C5.75 7.31878 5.79609 7.2075 5.87814 7.12546C5.96019 7.04341 6.07147 6.99731 6.1875 6.99731H7.5V5.24731C7.5 4.55112 7.77656 3.88344 8.26884 3.39116C8.76113 2.89888 9.42881 2.62231 10.125 2.62231H11.4375C11.5535 2.62231 11.6648 2.66841 11.7469 2.75046C11.8289 2.8325 11.875 2.94378 11.875 3.05981V4.37231Z" fill="white"/>
</g>
<defs>
<clipPath id="clip0_261_8634">
<rect width="14" height="14" fill="white" transform="translate(0.5 0.434814)"/>
</clipPath>
</defs>
</svg>
