<svg width="57" height="57" viewBox="0 0 57 57" fill="none" xmlns="http://www.w3.org/2000/svg">
<rect x="4.84375" y="4.10071" width="48" height="48" rx="24" fill="#FEE4E2"/>
<rect x="4.84375" y="4.10071" width="48" height="48" rx="24" stroke="#FEF3F2" stroke-width="8"/>
<g clip-path="url(#clip0_261_6943)">
<path d="M29.3438 40.1007C31.7171 40.1007 34.0372 39.3969 36.0106 38.0783C37.984 36.7598 39.5221 34.8856 40.4303 32.6929C41.3386 30.5002 41.5762 28.0874 41.1132 25.7596C40.6502 23.4319 39.5073 21.2937 37.829 19.6154C36.1508 17.9372 34.0126 16.7943 31.6848 16.3313C29.3571 15.8683 26.9443 16.1059 24.7515 17.0142C22.5588 17.9224 20.6847 19.4605 19.3661 21.4339C18.0475 23.4073 17.3438 25.7273 17.3438 28.1007C17.3472 31.2823 18.6126 34.3325 20.8623 36.5822C23.112 38.8319 26.1622 40.0973 29.3438 40.1007ZM29.3438 21.1007C29.6404 21.1007 29.9304 21.1887 30.1771 21.3535C30.4238 21.5183 30.616 21.7526 30.7296 22.0267C30.8431 22.3008 30.8728 22.6024 30.8149 22.8933C30.7571 23.1843 30.6142 23.4516 30.4044 23.6614C30.1946 23.8712 29.9274 24.014 29.6364 24.0719C29.3454 24.1298 29.0438 24.1001 28.7697 23.9865C28.4956 23.873 28.2614 23.6807 28.0965 23.4341C27.9317 23.1874 27.8438 22.8974 27.8438 22.6007C27.8438 22.2029 28.0018 21.8214 28.2831 21.5401C28.5644 21.2587 28.9459 21.1007 29.3438 21.1007ZM28.3438 26.1007H29.3438C29.8742 26.1007 30.3829 26.3114 30.758 26.6865C31.133 27.0616 31.3438 27.5703 31.3438 28.1007V34.1007C31.3438 34.3659 31.2384 34.6203 31.0509 34.8078C30.8633 34.9954 30.609 35.1007 30.3438 35.1007C30.0785 35.1007 29.8242 34.9954 29.6366 34.8078C29.4491 34.6203 29.3438 34.3659 29.3438 34.1007V28.1007H28.3438C28.0785 28.1007 27.8242 27.9954 27.6366 27.8078C27.4491 27.6203 27.3438 27.3659 27.3438 27.1007C27.3438 26.8355 27.4491 26.5811 27.6366 26.3936C27.8242 26.2061 28.0785 26.1007 28.3438 26.1007Z" fill="#D74120"/>
</g>
<defs>
<clipPath id="clip0_261_6943">
<rect width="24" height="24" fill="white" transform="translate(17.3438 16.1007)"/>
</clipPath>
</defs>
</svg>
