<svg width="77" height="77" viewBox="0 0 77 77" fill="none" xmlns="http://www.w3.org/2000/svg">
<circle cx="38.4641" cy="38.269" r="37.4351" fill="#F1F1F1" stroke="#C3C3C3" stroke-width="0.729781"/>
<g clip-path="url(#clip0_261_8434)">
<path d="M47.2282 37.9042C44.8088 37.9042 42.4885 38.8653 40.7778 40.576C39.067 42.2868 38.1059 44.6071 38.1059 47.0264C38.1059 49.4458 39.067 51.7661 40.7778 53.4769C42.4885 55.1876 44.8088 56.1487 47.2282 56.1487C49.6476 56.1487 51.9678 55.1876 53.6786 53.4769C55.3893 51.7661 56.3504 49.4458 56.3504 47.0264C56.3504 44.6071 55.3893 42.2868 53.6786 40.576C51.9678 38.8653 49.6476 37.9042 47.2282 37.9042ZM52.8277 46.5886L48.7181 50.5628C48.0309 51.2409 47.1187 51.583 46.205 51.583C45.2912 51.583 44.376 51.2409 43.6766 50.5583L41.618 48.5331C41.4721 48.3941 41.3553 48.2276 41.2744 48.043C41.1935 47.8585 41.15 47.6597 41.1466 47.4583C41.1432 47.2568 41.1798 47.0567 41.2544 46.8695C41.329 46.6824 41.44 46.5119 41.5811 46.368C41.7221 46.2241 41.8904 46.1097 42.076 46.0315C42.2617 45.9532 42.4611 45.9126 42.6626 45.912C42.864 45.9115 43.0636 45.951 43.2497 46.0282C43.4358 46.1055 43.6047 46.2189 43.7465 46.362L45.8051 48.3857C46.024 48.6016 46.3828 48.597 46.5987 48.3826L50.7235 44.3932C51.0145 44.1139 51.4044 43.9617 51.8076 43.97C52.2107 43.9782 52.5941 44.1463 52.8733 44.4372C53.1526 44.7282 53.3048 45.1181 53.2965 45.5213C53.2883 45.9244 53.1202 46.3078 52.8292 46.5871L52.8277 46.5886ZM19.8614 31.8531V31.8029L19.9207 31.4046L21.6995 25.1741C22.1532 23.5854 23.1121 22.1878 24.4311 21.1928C25.7501 20.1978 27.3573 19.6596 29.0095 19.6597H30.504V25.7412C30.504 26.1444 30.6642 26.5311 30.9493 26.8162C31.2345 27.1014 31.6212 27.2615 32.0244 27.2615C32.4276 27.2615 32.8144 27.1014 33.0995 26.8162C33.3846 26.5311 33.5448 26.1444 33.5448 25.7412V19.6597H42.667V25.7412C42.667 26.1444 42.8272 26.5311 43.1124 26.8162C43.3975 27.1014 43.7842 27.2615 44.1874 27.2615C44.5907 27.2615 44.9774 27.1014 45.2625 26.8162C45.5476 26.5311 45.7078 26.1444 45.7078 25.7412V19.6597H47.2008C48.8527 19.66 50.4595 20.1982 51.7784 21.1928C53.0972 22.1874 54.0564 23.5844 54.5108 25.1726L56.2911 31.4L56.3504 31.7938C56.3545 32.7728 56.1215 33.7383 55.6715 34.6078C55.2214 35.4772 54.5675 36.2248 53.7658 36.7867C51.8165 35.5311 49.5469 34.8634 47.2282 34.8634C44.2737 34.8639 41.4216 35.9455 39.2097 37.9042H36.5855C34.7611 37.9042 33.1404 37.0801 32.0244 35.803C31.4592 36.4597 30.7594 36.9873 29.9724 37.3498C29.1855 37.7123 28.3297 37.9014 27.4633 37.9042H25.873C25.0805 37.903 24.2961 37.7454 23.5647 37.4404C22.8333 37.1354 22.1693 36.689 21.6108 36.1268C21.0523 35.5646 20.6103 34.8977 20.3101 34.1643C20.0099 33.431 19.8574 32.6455 19.8614 31.8531ZM39.2097 56.1487H27.4633C25.8504 56.1487 24.3035 55.508 23.163 54.3675C22.0225 53.227 21.3818 51.6801 21.3818 50.0672V39.7438C22.7349 40.5223 24.2705 40.9449 25.873 40.9449H27.4633C29.0672 40.943 30.6416 40.5138 32.0244 39.7013C33.4004 40.5071 34.9709 40.9449 36.5855 40.9449H36.7102C35.6332 42.7908 35.0656 44.8894 35.0652 47.0264C35.0661 48.7545 35.4364 50.4624 36.1512 52.0356C36.866 53.6089 37.9088 55.0113 39.2097 56.1487Z" fill="#A5A5A5"/>
</g>
<defs>
<clipPath id="clip0_261_8434">
<rect width="36.489" height="36.489" fill="white" transform="translate(19.8613 19.6597)"/>
</clipPath>
</defs>
</svg>
