<svg width="23" height="22" viewBox="0 0 23 22" fill="none" xmlns="http://www.w3.org/2000/svg">
<path d="M22.411 8.34219V17.3422C22.411 19.8235 20.3923 21.8422 17.911 21.8422H5.31104C2.82974 21.8422 0.811035 19.8235 0.811035 17.3422V8.34219C0.811035 5.86089 2.82974 3.84219 5.31104 3.84219H8.91104V2.94219C8.91104 1.45359 10.1224 0.242188 11.611 0.242188C13.0996 0.242188 14.311 1.45359 14.311 2.94219V3.84219H17.911C20.3923 3.84219 22.411 5.86089 22.411 8.34219ZM10.711 6.54219H12.5119V2.94219C12.5045 2.7083 12.4064 2.48647 12.2384 2.32364C12.0703 2.16081 11.8455 2.06976 11.6115 2.06976C11.3775 2.06976 11.1527 2.16081 10.9846 2.32364C10.8165 2.48647 10.7184 2.7083 10.711 2.94219V6.54219ZM9.36104 11.4922C9.36104 12.7333 10.3699 13.7422 11.611 13.7422C12.8521 13.7422 13.861 12.7333 13.861 11.4922C13.861 10.2511 12.8521 9.24219 11.611 9.24219C10.3699 9.24219 9.36104 10.2511 9.36104 11.4922ZM16.0822 18.0181C15.5791 16.0615 13.699 14.6422 11.611 14.6422C9.52304 14.6422 7.64204 16.0615 7.13984 18.0181C7.10617 18.1338 7.09611 18.2552 7.11024 18.3749C7.12437 18.4946 7.16242 18.6103 7.22211 18.715C7.2818 18.8198 7.36193 18.9115 7.45773 18.9846C7.55354 19.0578 7.66307 19.111 7.77983 19.141C7.89658 19.1711 8.01818 19.1773 8.1374 19.1595C8.25663 19.1416 8.37105 19.1 8.47387 19.037C8.57669 18.9741 8.66583 18.8911 8.73598 18.7931C8.80613 18.6951 8.85586 18.5839 8.88224 18.4663C9.17924 17.3125 10.3519 16.4422 11.611 16.4422C12.8701 16.4422 14.0428 17.3125 14.3398 18.4663C14.3998 18.6969 14.5487 18.8944 14.754 19.0153C14.9593 19.1363 15.2042 19.1709 15.435 19.1116C15.6658 19.0522 15.8636 18.9038 15.9851 18.6988C16.1066 18.4938 16.141 18.249 16.0822 18.0181Z" fill="#408F8C"/>
</svg>
