<svg width="15" height="15" viewBox="0 0 15 15" fill="none" xmlns="http://www.w3.org/2000/svg">
<g clip-path="url(#clip0_261_25961)">
<path d="M13.2051 4.03158H3.87174C3.62574 4.03112 3.38258 3.97902 3.15799 3.87863C2.93341 3.77825 2.7324 3.63182 2.56799 3.44883C2.7319 3.26513 2.93278 3.11815 3.15746 3.01752C3.38214 2.91689 3.62556 2.86489 3.87174 2.86491H14.3717C15.1347 2.86141 15.1342 1.70116 14.3717 1.69824H3.87174C3.0982 1.69824 2.35633 2.00553 1.80935 2.55251C1.26237 3.0995 0.955078 3.84136 0.955078 4.61491L0.955078 10.4482C0.955078 11.2218 1.26237 11.9637 1.80935 12.5106C2.35633 13.0576 3.0982 13.3649 3.87174 13.3649H13.2051C13.6692 13.3649 14.1143 13.1805 14.4425 12.8523C14.7707 12.5242 14.9551 12.079 14.9551 11.6149V5.78158C14.9551 5.31745 14.7707 4.87233 14.4425 4.54414C14.1143 4.21595 13.6692 4.03158 13.2051 4.03158ZM12.6217 9.28158C11.8587 9.27808 11.8587 8.11841 12.6217 8.11491C13.3847 8.11841 13.3847 9.27808 12.6217 9.28158Z" fill="#313131"/>
</g>
<defs>
<clipPath id="clip0_261_25961">
<rect width="14" height="14" fill="white" transform="translate(0.955078 0.53125)"/>
</clipPath>
</defs>
</svg>
